PathFileType	4	(X/Y/Z)	/home/nbianco/projects/addbio/data/HamnerRunning2013/Processed/subject20//results/MarkerData/run400.trc
DataRate	CameraRate	NumFrames	NumMarkers	Units	OrigDataRate	OrigDataStartFrame	OrigNumFrames
119.99	119.99	10	42	m	119.99	58	232
Frame#	Time	C7			CLAV			LACR			LASI			LCAL			LFAradius			LFAsuperior			LFAulna			LLEL			LMEL			LMT5			LPSI			LTB1			LTB2			LTB3			LTH1			LTH2			LTH3			LTOE			LUA1			LUA2			LUA3			RACR			RASI			RCAL			RFAradius			RFAsuperior			RFAulna			RLEL			RMEL			RMT5			RPSI			RTB1			RTB2			RTB3			RTH1			RTH2			RTH3			RTOE			RUA1			RUA2			RUA3		
		X1	Y1	Z1	X2	Y2	Z2	X3	Y3	Z3	X4	Y4	Z4	X5	Y5	Z5	X6	Y6	Z6	X7	Y7	Z7	X8	Y8	Z8	X9	Y9	Z9	X10	Y10	Z10	X11	Y11	Z11	X12	Y12	Z12	X13	Y13	Z13	X14	Y14	Z14	X15	Y15	Z15	X16	Y16	Z16	X17	Y17	Z17	X18	Y18	Z18	X19	Y19	Z19	X20	Y20	Z20	X21	Y21	Z21	X22	Y22	Z22	X23	Y23	Z23	X24	Y24	Z24	X25	Y25	Z25	X26	Y26	Z26	X27	Y27	Z27	X28	Y28	Z28	X29	Y29	Z29	X30	Y30	Z30	X31	Y31	Z31	X32	Y32	Z32	X33	Y33	Z33	X34	Y34	Z34	X35	Y35	Z35	X36	Y36	Z36	X37	Y37	Z37	X38	Y38	Z38	X39	Y39	Z39	X40	Y40	Z40	X41	Y41	Z41	X42	Y42	Z42

59	0.566667	0.699206	1.49004	-0.370205	0.826022	1.39389	-0.330079	0.737549	1.42682	-0.551841	0.719635	0.984442	-0.501805	0.345836	0.125218	-0.337835	0.882155	1.18672	-0.587761	0.737703	1.18148	-0.690965	0.888086	1.12691	-0.622755	0.664251	1.17441	-0.70464	0.635708	1.11899	-0.64134	0.524498	0.059355	-0.412406	0.55981	1.01196	-0.389093	0.615187	0.351416	-0.388215	0.529085	0.269096	-0.426897	0.508106	0.198549	-0.34456	0.661379	0.83833	-0.527657	0.706719	0.721153	-0.508071	0.625339	0.588844	-0.484073	0.556643	0.0709643	-0.327014	0.703525	1.35565	-0.606924	0.642128	1.28759	-0.589813	0.683797	1.2728	-0.651029	0.719442	1.4501	-0.178763	0.744981	0.990437	-0.242314	0.478303	0.56678	-0.275036	0.728809	1.0612	-0.0942056	0.614554	1.16982	-0.0336065	0.671429	1.02382	-0.0850096	0.552186	1.23069	-0.0271735	0.508942	1.2162	-0.101344	0.47615	0.385527	-0.174356	0.571146	1.01114	-0.306053	0.807942	0.479574	-0.261182	0.737745	0.511822	-0.207482	0.630013	0.476024	-0.271696	0.762778	0.824965	-0.198201	0.879586	0.754862	-0.22789	0.872282	0.623493	-0.201071	0.497002	0.347559	-0.26144	0.662005	1.36554	-0.109933	0.656065	1.29581	-0.10165	0.555074	1.31455	-0.0842897
60	0.575	0.698514	1.4958	-0.370169	0.824478	1.40107	-0.327185	0.741246	1.43353	-0.550926	0.719303	0.986196	-0.503345	0.316597	0.134583	-0.340675	0.889518	1.19921	-0.579801	0.747916	1.1871	-0.6854	0.898019	1.13891	-0.613057	0.675111	1.17705	-0.70079	0.645371	1.12255	-0.636604	0.49033	0.0594471	-0.412063	0.561115	1.01745	-0.390203	0.58706	0.357347	-0.388501	0.499091	0.277227	-0.428076	0.478615	0.205255	-0.346203	0.656608	0.841992	-0.527586	0.695693	0.72373	-0.507283	0.605321	0.59563	-0.482104	0.524596	0.0716077	-0.327967	0.710133	1.36068	-0.605979	0.647771	1.29272	-0.59065	0.692763	1.27651	-0.648883	0.715064	1.45652	-0.179012	0.746003	0.997934	-0.24576	0.492425	0.54153	-0.275758	0.719125	1.0711	-0.0926881	0.604122	1.17979	-0.0345334	0.661361	1.03371	-0.0857182	0.542117	1.24065	-0.0296886	0.499697	1.22715	-0.1049	0.50987	0.361912	-0.173928	0.572519	1.01725	-0.306497	0.829622	0.484984	-0.264423	0.757071	0.511392	-0.209993	0.651845	0.465587	-0.272538	0.768209	0.835496	-0.199749	0.886551	0.769192	-0.23059	0.885119	0.637005	-0.204574	0.533378	0.325411	-0.261396	0.6559	1.37375	-0.110368	0.648942	1.30405	-0.101715	0.547716	1.32435	-0.0860688
61	0.583333	0.697664	1.50166	-0.369742	0.822623	1.40865	-0.324491	0.744771	1.44083	-0.549659	0.719506	0.988999	-0.504093	0.2893	0.145773	-0.344152	0.895123	1.2116	-0.571675	0.756938	1.19385	-0.680273	0.905921	1.15104	-0.603141	0.684899	1.18128	-0.6973	0.653296	1.12762	-0.632697	0.456594	0.0596475	-0.411798	0.562518	1.02334	-0.391463	0.560079	0.365393	-0.389146	0.470615	0.287356	-0.429928	0.450901	0.213492	-0.348919	0.65218	0.845904	-0.527625	0.685105	0.726794	-0.506789	0.586122	0.603913	-0.480352	0.493178	0.0724315	-0.328949	0.716277	1.36671	-0.604891	0.653409	1.29866	-0.591436	0.701244	1.28143	-0.646933	0.710956	1.46305	-0.17921	0.747297	1.00554	-0.249471	0.508381	0.51432	-0.277033	0.710009	1.08123	-0.0916247	0.594678	1.19021	-0.0356731	0.652066	1.04379	-0.086279	0.533054	1.25093	-0.0320851	0.490843	1.2384	-0.108084	0.545671	0.338491	-0.17423	0.573703	1.02378	-0.306772	0.850344	0.490485	-0.267759	0.776002	0.509902	-0.212627	0.673921	0.454143	-0.27335	0.773555	0.846144	-0.201427	0.892516	0.782766	-0.233006	0.896082	0.649677	-0.207924	0.571435	0.303811	-0.262258	0.650235	1.38219	-0.110794	0.642359	1.31239	-0.101933	0.541022	1.33438	-0.0875948
62	0.591667	0.696808	1.5076	-0.369039	0.820526	1.41627	-0.322024	0.748104	1.4484	-0.54806	0.720119	0.992886	-0.504336	0.264241	0.158659	-0.348113	0.899027	1.2235	-0.563622	0.764709	1.20117	-0.675678	0.911894	1.16288	-0.59327	0.693527	1.18666	-0.694358	0.659809	1.13367	-0.629766	0.423647	0.0600717	-0.411877	0.563953	1.02945	-0.392748	0.534989	0.375297	-0.390531	0.444154	0.299174	-0.432518	0.425495	0.222983	-0.352885	0.647501	0.850003	-0.52771	0.674898	0.730276	-0.506415	0.56831	0.613344	-0.479151	0.462426	0.0733171	-0.330163	0.72189	1.37349	-0.603715	0.658787	1.30526	-0.592236	0.709081	1.28722	-0.645266	0.7071	1.46953	-0.179359	0.748815	1.01297	-0.253142	0.526399	0.485487	-0.278671	0.701493	1.09129	-0.0910587	0.586117	1.20076	-0.0369218	0.643544	1.05378	-0.0866668	0.524887	1.26129	-0.0343678	0.482572	1.24968	-0.110978	0.583327	0.315339	-0.175471	0.574983	1.03062	-0.307101	0.869836	0.495905	-0.271196	0.794486	0.507334	-0.215399	0.696753	0.441852	-0.274507	0.778609	0.856489	-0.20317	0.897535	0.795417	-0.235084	0.904993	0.661255	-0.211199	0.61118	0.282983	-0.264045	0.645	1.39064	-0.111251	0.636294	1.32069	-0.102335	0.534986	1.34443	-0.0889975
63	0.6	0.696098	1.51356	-0.368224	0.818345	1.4236	-0.319764	0.751273	1.45593	-0.54622	0.721034	0.997409	-0.504521	0.241659	0.173302	-0.352288	0.901372	1.2347	-0.555825	0.771304	1.20867	-0.671628	0.916075	1.1741	-0.583613	0.701044	1.1928	-0.692119	0.665187	1.14025	-0.627878	0.391625	0.060894	-0.412519	0.565492	1.03559	-0.393863	0.512536	0.386298	-0.392979	0.420097	0.312029	-0.435787	0.402694	0.233308	-0.357881	0.642456	0.854386	-0.527784	0.665084	0.734165	-0.505981	0.552227	0.623486	-0.47871	0.432515	0.0744615	-0.331871	0.727034	1.3807	-0.602523	0.663645	1.31238	-0.593158	0.716165	1.29356	-0.643907	0.7035	1.47577	-0.179502	0.750419	1.02014	-0.256412	0.546607	0.455325	-0.280635	0.693667	1.10108	-0.0908556	0.578339	1.21113	-0.0381505	0.635797	1.06351	-0.0868891	0.517498	1.27148	-0.0365041	0.475028	1.26071	-0.113626	0.622536	0.292536	-0.177725	0.576625	1.03759	-0.307606	0.887867	0.500921	-0.274681	0.812417	0.503791	-0.218264	0.720622	0.429057	-0.276414	0.783235	0.866221	-0.204857	0.901621	0.806841	-0.236709	0.911659	0.671508	-0.214602	0.652579	0.263096	-0.266702	0.640198	1.39889	-0.111734	0.63073	1.3288	-0.102852	0.529602	1.35428	-0.0903403
64	0.608333	0.695624	1.51937	-0.36747	0.816295	1.43037	-0.317647	0.754382	1.46314	-0.544297	0.722164	1.00192	-0.504917	0.22168	0.18988	-0.356293	0.902345	1.24504	-0.548418	0.776838	1.21615	-0.668142	0.918617	1.18453	-0.574352	0.707536	1.19938	-0.690669	0.669501	1.14708	-0.626998	0.360281	0.0623635	-0.41374	0.567184	1.04167	-0.394611	0.493219	0.397308	-0.396555	0.398685	0.325103	-0.439559	0.38244	0.243993	-0.363371	0.637424	0.859198	-0.527828	0.655815	0.73847	-0.505552	0.538126	0.633792	-0.479092	0.403656	0.076386	-0.334294	0.731819	1.38806	-0.60139	0.667865	1.31986	-0.594279	0.722424	1.3002	-0.642814	0.700182	1.48158	-0.179695	0.751889	1.02704	-0.259025	0.569024	0.42414	-0.283034	0.686634	1.11051	-0.0907641	0.571271	1.22107	-0.0392482	0.62884	1.07284	-0.0869577	0.510805	1.28129	-0.0384399	0.468271	1.27126	-0.116039	0.662968	0.270357	-0.180849	0.578639	1.04445	-0.308202	0.904338	0.505192	-0.278111	0.829658	0.499447	-0.221141	0.745399	0.416134	-0.279197	0.787362	0.875149	-0.20636	0.904742	0.816665	-0.237725	0.915972	0.680231	-0.218356	0.695437	0.244457	-0.270089	0.635838	1.40674	-0.112211	0.625661	1.33658	-0.103337	0.524837	1.36371	-0.0916261
65	0.616667	0.695401	1.52481	-0.366914	0.814571	1.43641	-0.315612	0.757571	1.46983	-0.542471	0.723396	1.00598	-0.505393	0.204255	0.208502	-0.359731	0.902141	1.2544	-0.541507	0.781383	1.22353	-0.66527	0.9197	1.1941	-0.565817	0.713051	1.20615	-0.689975	0.672654	1.15404	-0.62701	0.32903	0.0648818	-0.415243	0.568954	1.04765	-0.394878	0.477123	0.407253	-0.400998	0.379945	0.337679	-0.443553	0.364298	0.254654	-0.368738	0.632987	0.864487	-0.527883	0.647395	0.74318	-0.505554	0.526314	0.643592	-0.480201	0.375852	0.079746	-0.337419	0.736333	1.39527	-0.60038	0.671486	1.32753	-0.595627	0.727819	1.30691	-0.641931	0.697172	1.48682	-0.179965	0.752984	1.0336	-0.26093	0.593539	0.392284	-0.286013	0.680463	1.11949	-0.0905541	0.564866	1.23038	-0.040142	0.622693	1.08169	-0.0868636	0.504757	1.29053	-0.0401349	0.462301	1.28115	-0.118208	0.704252	0.2493	-0.184565	0.580781	1.05096	-0.308636	0.919233	0.508451	-0.281367	0.846062	0.494439	-0.223955	0.770619	0.40333	-0.282646	0.790877	0.883097	-0.207609	0.906838	0.824602	-0.238024	0.918014	0.687248	-0.222531	0.739312	0.227569	-0.274003	0.631936	1.41405	-0.112648	0.621091	1.3439	-0.103626	0.520621	1.37257	-0.0928183
66	0.625	0.695405	1.52967	-0.366628	0.813286	1.44168	-0.313642	0.760938	1.47589	-0.540889	0.724547	1.00955	-0.505506	0.189123	0.229045	-0.362354	0.900933	1.2627	-0.535201	0.784964	1.23073	-0.663068	0.919519	1.20271	-0.558432	0.717584	1.21291	-0.689891	0.674534	1.16105	-0.627767	0.297239	0.06911	-0.416485	0.57062	1.05347	-0.394689	0.463928	0.415437	-0.405834	0.363669	0.349364	-0.447418	0.34761	0.265143	-0.37349	0.629575	0.870133	-0.528017	0.640225	0.748214	-0.506598	0.517168	0.652199	-0.481826	0.34873	0.0850783	-0.340863	0.740604	1.4021	-0.59954	0.674624	1.3352	-0.597195	0.732362	1.31349	-0.64126	0.694485	1.49146	-0.180302	0.753527	1.0396	-0.262239	0.619894	0.360164	-0.289625	0.675165	1.12795	-0.0901166	0.559092	1.23896	-0.0407946	0.617391	1.09002	-0.0865724	0.499318	1.29905	-0.0415869	0.457113	1.29022	-0.120132	0.745943	0.229906	-0.18866	0.582714	1.05704	-0.308659	0.932515	0.510504	-0.28436	0.861486	0.488747	-0.226663	0.795696	0.390702	-0.286405	0.793535	0.889799	-0.208608	0.907896	0.830549	-0.237664	0.918114	0.692418	-0.226898	0.783516	0.212963	-0.278295	0.628507	1.42074	-0.113034	0.617025	1.35068	-0.103609	0.516861	1.38072	-0.0938713
67	0.633333	0.695608	1.53385	-0.366594	0.812458	1.44622	-0.311773	0.764464	1.48124	-0.539597	0.725407	1.01296	-0.504839	0.175852	0.251134	-0.364149	0.898872	1.26986	-0.529625	0.78759	1.23768	-0.661566	0.918274	1.21025	-0.552498	0.721112	1.2195	-0.690233	0.675161	1.16801	-0.629152	0.264654	0.0759798	-0.416922	0.571981	1.05904	-0.3942	0.453106	0.421738	-0.41055	0.349528	0.360169	-0.450832	0.331771	0.275615	-0.377371	0.627284	0.875854	-0.528277	0.634719	0.753368	-0.509074	0.511023	0.659096	-0.483733	0.321683	0.0926712	-0.343982	0.744604	1.40835	-0.598886	0.677385	1.34269	-0.598949	0.736118	1.31979	-0.640905	0.692136	1.49551	-0.180658	0.753461	1.04476	-0.263094	0.647699	0.328219	-0.293762	0.670724	1.13583	-0.089452	0.55393	1.24674	-0.0411897	0.612977	1.09776	-0.0860359	0.494456	1.30676	-0.0428278	0.452736	1.29834	-0.121821	0.787537	0.212514	-0.193129	0.584192	1.06273	-0.308201	0.944063	0.511186	-0.287018	0.875774	0.482159	-0.22923	0.820091	0.378175	-0.290197	0.795	0.894903	-0.209351	0.908046	0.834593	-0.236975	0.916776	0.695647	-0.230957	0.827192	0.200941	-0.282986	0.625562	1.42673	-0.113378	0.613471	1.35684	-0.103278	0.513485	1.38808	-0.0947591
68	0.641667	0.696012	1.53732	-0.366713	0.81205	1.45007	-0.310055	0.767998	1.48585	-0.538527	0.725846	1.01659	-0.503335	0.163909	0.274281	-0.365298	0.896081	1.2758	-0.524884	0.789297	1.24418	-0.660754	0.916139	1.21653	-0.548002	0.723632	1.22576	-0.690892	0.674713	1.17476	-0.631089	0.231754	0.0864872	-0.416323	0.572894	1.06418	-0.393618	0.444165	0.426553	-0.414736	0.337261	0.370394	-0.453621	0.316452	0.286461	-0.380341	0.625965	0.881284	-0.528646	0.631217	0.758321	-0.512817	0.508011	0.664076	-0.485782	0.294269	0.102642	-0.346189	0.748268	1.41394	-0.598407	0.67981	1.34986	-0.600832	0.739175	1.32569	-0.640997	0.690181	1.49894	-0.180973	0.752849	1.04891	-0.263571	0.676489	0.296927	-0.298209	0.667139	1.14304	-0.0885775	0.549397	1.25368	-0.0413149	0.609508	1.10482	-0.0852044	0.49017	1.31354	-0.0438934	0.449229	1.30537	-0.123286	0.828487	0.197136	-0.198131	0.585177	1.06812	-0.307423	0.95372	0.510311	-0.289237	0.8887	0.474367	-0.231607	0.843391	0.365628	-0.293891	0.795029	0.898113	-0.209772	0.907554	0.836897	-0.236512	0.914485	0.696895	-0.234176	0.86943	0.191428	-0.288232	0.623117	1.43196	-0.113688	0.610441	1.36227	-0.102732	0.510496	1.39453	-0.0954906
